<svg xmlns="http://www.w3.org/2000/svg" viewBox="0 0 250 130"><defs><style>.cls-1{fill:#fff5e6;}.cls-2{opacity:0.33;}.cls-3{fill:#070707;}</style></defs><g id="Layer_2" data-name="Layer 2"><g id="Better_Base" data-name="Better Base"><g id="Domino_Base_copy" data-name="Domino Base copy"><path class="cls-1" d="M26.22,129.5a15.71,15.71,0,0,1-11.12-4.61l-10-10A15.64,15.64,0,0,1,.5,103.78V16.22A15.74,15.74,0,0,1,16.22.5H223.78A15.68,15.68,0,0,1,234.9,5.1l10,10a15.76,15.76,0,0,1,4.6,11.12v87.56a15.72,15.72,0,0,1-15.72,15.72Z"/><path d="M223.78,1a15.1,15.1,0,0,1,10.76,4.46l10,10A15.22,15.22,0,0,1,249,26.22v87.56A15.22,15.22,0,0,1,233.78,129H26.22a15.22,15.22,0,0,1-10.76-4.46l-10-10A15.1,15.1,0,0,1,1,103.78V16.22A15.24,15.24,0,0,1,16.22,1H223.78m0-1H16.22A16.22,16.22,0,0,0,0,16.22v87.56a16.2,16.2,0,0,0,4.75,11.47l10,10a16.42,16.42,0,0,0,5.16,3.48A16.16,16.16,0,0,0,26.22,130H233.78a16.16,16.16,0,0,0,6.31-1.27,16.3,16.3,0,0,0,8.64-8.64,16.16,16.16,0,0,0,1.27-6.31V26.22a16.16,16.16,0,0,0-1.27-6.31,16.42,16.42,0,0,0-3.48-5.16l-10-10A16.2,16.2,0,0,0,223.78,0Z"/><g class="cls-2"><path d="M26.22,129.5a15.71,15.71,0,0,1-11.12-4.61l-5.95-6a16.7,16.7,0,0,0,7.07,1.56H223.78a16.74,16.74,0,0,0,16.72-16.72V16.22a16.7,16.7,0,0,0-1.56-7.07l6,5.95a15.76,15.76,0,0,1,4.6,11.12v87.56a15.72,15.72,0,0,1-15.72,15.72Z"/><path d="M240.25,11.17l4.29,4.29A15.22,15.22,0,0,1,249,26.22v87.56A15.22,15.22,0,0,1,233.78,129H26.22a15.22,15.22,0,0,1-10.76-4.46l-4.29-4.29a17.34,17.34,0,0,0,5,.75H223.78A17.25,17.25,0,0,0,241,103.78V16.22a17.34,17.34,0,0,0-.75-5m-5-6.42A16.2,16.2,0,0,1,240,16.22v87.56A16.22,16.22,0,0,1,223.78,120H16.22a16.2,16.2,0,0,1-11.47-4.75l10,10a16.42,16.42,0,0,0,5.16,3.48A16.16,16.16,0,0,0,26.22,130H233.78a16.16,16.16,0,0,0,6.31-1.27,16.3,16.3,0,0,0,8.64-8.64,16.16,16.16,0,0,0,1.27-6.31V26.22a16.16,16.16,0,0,0-1.27-6.31,16.42,16.42,0,0,0-3.48-5.16l-10-10Z"/></g><rect class="cls-1" x="0.5" y="0.75" width="239" height="119" rx="15.72"/><path d="M223.78,1.25A15.24,15.24,0,0,1,239,16.47V104a15.24,15.24,0,0,1-15.22,15.22H16.22A15.24,15.24,0,0,1,1,104V16.47A15.24,15.24,0,0,1,16.22,1.25H223.78m0-1H16.22A16.22,16.22,0,0,0,0,16.47V104a16.22,16.22,0,0,0,16.22,16.22H223.78A16.22,16.22,0,0,0,240,104V16.47A16.22,16.22,0,0,0,223.78.25Z"/><rect class="cls-3" x="67" y="56.19" width="106" height="7.61" rx="3.81" transform="translate(60 180) rotate(-90)"/></g></g><g id="_1L" data-name="1L"><circle class="cls-3" cx="60" cy="59.25" r="11"/></g></g></svg>